<svg width="42" height="42" viewBox="0 0 42 42" fill="none" xmlns="http://www.w3.org/2000/svg">
<path d="M7.75265 23.3042H11.2562C12.7869 23.3042 14.2241 22.4019 15.0067 20.9573C15.8631 19.3749 15.7794 17.5218 14.7835 15.9993C13.6007 14.1914 11.554 14.0273 10.1537 14.6425C8.69847 15.2799 7.95198 16.6269 8.29652 17.9935C8.73128 19.7162 10.0503 20.2289 11.093 19.9795C12.0306 19.7531 12.5958 18.9656 12.4055 18.1477C12.3746 18.0352 12.3015 17.939 12.2014 17.8792C12.1012 17.8194 11.9818 17.8006 11.8681 17.8267C11.7545 17.8529 11.6553 17.922 11.5914 18.0196C11.5275 18.1172 11.5038 18.2357 11.5253 18.3504C11.6073 18.7211 11.2652 19.0066 10.8797 19.1018C10.2825 19.2461 9.47695 18.9836 9.17097 17.7729C8.88304 16.6326 9.71483 15.8197 10.5146 15.4694C11.6147 14.9879 13.1265 15.1175 14.0264 16.494C14.4236 17.0849 14.6509 17.7736 14.6834 18.4849C14.716 19.1962 14.5525 19.9027 14.211 20.5275C13.5859 21.6833 12.4539 22.4011 11.2578 22.4011H7.75265C7.69111 22.3973 7.62947 22.4063 7.5715 22.4273C7.51354 22.4482 7.46048 22.4809 7.4156 22.5231C7.37071 22.5654 7.33494 22.6164 7.3105 22.673C7.28605 22.7296 7.27344 22.7906 7.27344 22.8522C7.27344 22.9139 7.28605 22.9749 7.3105 23.0315C7.33494 23.0881 7.37071 23.1391 7.4156 23.1813C7.46048 23.2236 7.51354 23.2562 7.5715 23.2772C7.62947 23.2982 7.69111 23.3071 7.75265 23.3034V23.3042Z" fill="#666E7D"/>
<path d="M7.75261 27.4124H15.1395C22.1532 27.4124 26.368 25.2074 28.0242 20.6711C29.2809 17.2258 28.6804 14.7648 27.9618 13.3129C27.0824 11.5394 25.5321 10.2326 23.5969 9.6338C21.9637 9.12766 19.1623 9.54274 17.4823 11.0915C16.5103 11.9873 15.4808 13.6402 16.0985 16.4325C16.8162 19.6711 19.1566 20.5686 21.1024 20.3299C23.0482 20.0911 25.0095 18.6441 24.9578 16.6286C24.9267 15.4195 24.3328 14.4564 23.3295 13.9856C22.3632 13.5327 21.1672 13.6287 20.4207 14.2185C19.8358 14.6795 19.593 15.3891 19.7538 16.1651C19.7657 16.2232 19.789 16.2783 19.8223 16.3274C19.8555 16.3765 19.8982 16.4185 19.9477 16.4511C19.9972 16.4837 20.0526 16.5062 20.1108 16.5174C20.1691 16.5286 20.2289 16.5282 20.287 16.5162C20.345 16.5043 20.4002 16.481 20.4493 16.4477C20.4983 16.4144 20.5404 16.3718 20.573 16.3223C20.6056 16.2728 20.6281 16.2174 20.6393 16.1591C20.6504 16.1009 20.65 16.0411 20.6381 15.983C20.5454 15.5343 20.6602 15.1799 20.9801 14.9273C21.4617 14.5466 22.2926 14.495 22.9489 14.8034C23.35 14.9913 24.0276 15.4818 24.058 16.6524C24.0965 18.1339 22.4994 19.2495 20.9957 19.4341C20.2427 19.5292 17.7186 19.5702 16.9811 16.2349C16.5595 14.3293 16.9344 12.8215 18.0951 11.7518C19.6201 10.3466 22.1146 10.1112 23.3303 10.4927C25.0276 11.0185 26.3852 12.1612 27.153 13.7099C28.0767 15.572 28.0849 17.8714 27.1768 20.3545C25.6453 24.5495 21.821 26.5068 15.1403 26.5068H7.75753C7.69599 26.5031 7.63435 26.512 7.57638 26.533C7.51842 26.554 7.46536 26.5866 7.42048 26.6289C7.37559 26.6711 7.33983 26.7221 7.31538 26.7787C7.29093 26.8353 7.27832 26.8963 7.27832 26.958C7.27832 27.0196 7.29093 27.0806 7.31538 27.1372C7.33983 27.1938 7.37559 27.2448 7.42048 27.2871C7.46536 27.3293 7.51842 27.362 7.57638 27.3829C7.63435 27.4039 7.69599 27.4129 7.75753 27.4091L7.75261 27.4124Z" fill="#666E7D"/>
<path d="M33.0855 22.5659C31.5688 21.5249 29.5582 21.6636 28.404 22.8826C27.3105 24.0425 27.0202 25.4444 27.6264 26.633C28.1038 27.5698 29.0291 28.1473 29.8789 28.0382C30.225 27.9999 30.5555 27.8739 30.8392 27.672C31.1228 27.4702 31.3503 27.1992 31.4999 26.8849C31.7837 26.3065 31.81 25.6085 31.5647 25.186C31.5359 25.1327 31.4967 25.0858 31.4494 25.048C31.4021 25.0102 31.3477 24.9823 31.2894 24.9659C31.2311 24.9495 31.1701 24.945 31.1101 24.9526C31.05 24.9603 30.9921 24.9799 30.9398 25.0104C30.8874 25.0408 30.8418 25.0815 30.8055 25.1299C30.7691 25.1784 30.7429 25.2336 30.7284 25.2924C30.7138 25.3511 30.7112 25.4122 30.7207 25.472C30.7302 25.5318 30.7517 25.5891 30.7837 25.6404C30.8428 25.7413 30.8773 26.1047 30.6894 26.4862C30.6054 26.666 30.4762 26.821 30.3145 26.936C30.1528 27.051 29.964 27.1221 29.7666 27.1424C29.3047 27.1982 28.7313 26.8069 28.4335 26.222C28.0021 25.3763 28.2318 24.3845 29.0635 23.5019C30.0315 22.4749 31.5967 22.6356 32.5786 23.3108C33.8689 24.1959 34.1519 25.7397 33.3366 27.4386C31.3973 31.4712 27.2433 31.664 20.0672 31.664H7.75265C7.69111 31.6603 7.62947 31.6692 7.5715 31.6902C7.51354 31.7112 7.46048 31.7438 7.4156 31.7861C7.37071 31.8283 7.33494 31.8793 7.3105 31.9359C7.28605 31.9925 7.27344 32.0535 7.27344 32.1152C7.27344 32.1768 7.28605 32.2378 7.3105 32.2944C7.33494 32.351 7.37071 32.402 7.4156 32.4443C7.46048 32.4865 7.51354 32.5192 7.5715 32.5401C7.62947 32.5611 7.69111 32.5701 7.75265 32.5663H20.0672C26.6617 32.5663 31.8707 32.5663 34.147 27.8249C35.3553 25.3148 34.3907 23.4609 33.0855 22.5659Z" fill="#666E7D"/>
</svg>
