<svg width="20" height="20" viewBox="0 0 20 20" fill="none" xmlns="http://www.w3.org/2000/svg">
<path d="M11.6052 13.9494L14.5932 9.14469C14.603 9.12914 14.6112 9.1128 14.6175 9.09586C15.1335 8.25442 15.406 7.29321 15.406 6.31186C15.406 3.36783 13.0108 0.972656 10.0668 0.972656C7.1228 0.972656 4.72746 3.36783 4.72746 6.31186C4.72746 7.29341 5.0003 8.25502 5.51667 9.09706C5.52265 9.11181 5.52963 9.12616 5.538 9.14011L8.41883 13.9613C6.18252 14.2774 4.71191 15.197 4.71191 16.3125C4.71191 17.6946 7.06062 18.777 10.0588 18.777C13.0571 18.777 15.4058 17.6944 15.4058 16.3125C15.406 15.1918 13.8668 14.2517 11.6052 13.9494ZM6.05338 8.82781C5.57706 8.06967 5.32535 7.19974 5.32535 6.31186C5.32535 3.69747 7.45224 1.57055 10.0668 1.57055C12.6812 1.57055 14.8081 3.69747 14.8081 6.31186C14.8081 7.20014 14.5564 8.07007 14.0802 8.82781C14.0703 8.84375 14.0621 8.86029 14.0555 8.87743L10.8987 13.953C10.8512 14.0257 10.8419 14.0423 10.7839 14.1375L9.98669 15.4194L6.08008 8.88162C6.07311 8.86308 6.06414 8.84495 6.05338 8.82781ZM10.059 18.1791C7.26032 18.1791 5.31 17.1952 5.31 16.3125C5.31 15.5113 6.77882 14.7563 8.75444 14.5226L9.72502 16.147C9.77863 16.2365 9.87469 16.2917 9.97892 16.2925C9.97972 16.2925 9.98071 16.2925 9.98151 16.2925C10.0847 16.2925 10.1808 16.2391 10.2354 16.1514L11.2558 14.5108C13.2629 14.7282 14.8079 15.5023 14.8079 16.3125C14.8081 17.1954 12.8578 18.1791 10.059 18.1791Z" fill="white"/>
<path d="M12.0004 6.31197C12.0004 5.24154 11.1294 4.37061 10.059 4.37061C8.9886 4.37061 8.11768 5.24154 8.11768 6.31197C8.11768 7.3824 8.9886 8.25334 10.059 8.25334C11.1294 8.25334 12.0004 7.3824 12.0004 6.31197ZM8.71557 6.31197C8.71557 5.57118 9.31824 4.9685 10.059 4.9685C10.7998 4.9685 11.4025 5.57118 11.4025 6.31197C11.4025 7.05276 10.8 7.65544 10.059 7.65544C9.31804 7.65544 8.71557 7.05276 8.71557 6.31197Z" fill="white"/>
</svg>
