<svg width="36" height="36" viewBox="0 0 36 36" fill="none" xmlns="http://www.w3.org/2000/svg">
<path d="M16.3932 24.4285C14.6574 24.4285 13.2432 25.8428 13.2432 27.5785C13.2432 29.3142 14.6574 30.7285 16.3932 30.7285C18.1289 30.7285 19.5432 29.3142 19.5432 27.5785C19.5432 25.8428 18.1289 24.4285 16.3932 24.4285ZM16.3932 29.4428C15.3646 29.4428 14.5289 28.607 14.5289 27.5785C14.5289 26.5499 15.3646 25.7142 16.3932 25.7142C17.4217 25.7142 18.2574 26.5499 18.2574 27.5785C18.2574 28.607 17.4217 29.4428 16.3932 29.4428Z" fill="white"/>
<path d="M19.2858 21.7285V4.75704C19.2858 3.98561 18.9644 3.27847 18.4501 2.76418C17.8716 2.2499 17.1644 1.92847 16.393 1.92847C14.8501 1.92847 13.5644 3.21418 13.5644 4.75704V21.7285C11.3144 22.8213 9.96441 25.0713 9.96441 27.5785C9.90012 31.1785 12.8573 34.0713 16.393 34.0713C19.993 34.0713 22.8858 31.1785 22.8858 27.5785C22.8858 25.0713 21.4716 22.8213 19.2858 21.7285ZM16.393 32.7856C13.5001 32.7856 11.1858 30.4713 11.1858 27.5785C11.1858 25.457 12.4716 23.5928 14.4001 22.757C14.6573 22.6285 14.7858 22.4356 14.7858 22.1785V4.75704C14.7858 3.92132 15.493 3.21418 16.3287 3.21418C16.7787 3.21418 17.1644 3.40704 17.4216 3.66418C17.8073 3.98561 18.0001 4.37132 18.0001 4.75704V22.1142C18.0001 22.3713 18.1287 22.6285 18.3858 22.6928C20.3787 23.5285 21.6001 25.3928 21.6001 27.5142C21.6001 30.4713 19.2858 32.7856 16.393 32.7856Z" fill="white"/>
<path d="M20.9573 6.36408H25.393C25.7787 6.36408 26.0359 6.10694 26.0359 5.72123C26.0359 5.33551 25.7787 5.07837 25.393 5.07837H20.9573C20.5716 5.07837 20.3145 5.33551 20.3145 5.72123C20.3145 6.10694 20.6359 6.36408 20.9573 6.36408Z" fill="white"/>
<path d="M20.9573 10.2857H23.2073C23.593 10.2857 23.8502 10.0286 23.8502 9.64286C23.8502 9.25714 23.593 9 23.2073 9H20.9573C20.5716 9 20.3145 9.25714 20.3145 9.64286C20.3145 10.0286 20.6359 10.2857 20.9573 10.2857Z" fill="white"/>
<path d="M25.4575 12.9214H21.0218C20.636 12.9214 20.3789 13.1785 20.3789 13.5642C20.3789 13.95 20.636 14.2071 21.0218 14.2071H25.4575C25.8432 14.2071 26.1003 13.95 26.1003 13.5642C26.1003 13.1785 25.7789 12.9214 25.4575 12.9214Z" fill="white"/>
<path d="M23.2073 16.8428H20.9573C20.5716 16.8428 20.3145 17.0999 20.3145 17.4856C20.3145 17.8713 20.5716 18.1285 20.9573 18.1285H23.2073C23.593 18.1285 23.8502 17.8713 23.8502 17.4856C23.8502 17.0999 23.5287 16.8428 23.2073 16.8428Z" fill="white"/>
</svg>
