<svg width="20" height="20" viewBox="0 0 20 20" fill="none" xmlns="http://www.w3.org/2000/svg">
<path d="M11.6052 13.9493L14.5932 9.14457C14.603 9.12902 14.6112 9.11268 14.6175 9.09574C15.1335 8.2543 15.406 7.29309 15.406 6.31174C15.406 3.3677 13.0108 0.972534 10.0668 0.972534C7.1228 0.972534 4.72746 3.3677 4.72746 6.31174C4.72746 7.29329 5.0003 8.2549 5.51667 9.09694C5.52265 9.11168 5.52963 9.12603 5.538 9.13998L8.41883 13.9612C6.18252 14.2773 4.71191 15.1969 4.71191 16.3123C4.71191 17.6945 7.06062 18.7769 10.0588 18.7769C13.0571 18.7769 15.4058 17.6943 15.4058 16.3123C15.406 15.1917 13.8668 14.2516 11.6052 13.9493ZM6.05338 8.82768C5.57706 8.06955 5.32535 7.19962 5.32535 6.31174C5.32535 3.69734 7.45224 1.57043 10.0668 1.57043C12.6812 1.57043 14.8081 3.69734 14.8081 6.31174C14.8081 7.20001 14.5564 8.06995 14.0802 8.82768C14.0703 8.84363 14.0621 8.86017 14.0555 8.87731L10.8987 13.9528C10.8512 14.0256 10.8419 14.0421 10.7839 14.1374L9.98669 15.4193L6.08008 8.88149C6.07311 8.86296 6.06414 8.84482 6.05338 8.82768ZM10.059 18.179C7.26032 18.179 5.31 17.195 5.31 16.3123C5.31 15.5112 6.77882 14.7562 8.75444 14.5224L9.72502 16.1469C9.77863 16.2364 9.87469 16.2916 9.97892 16.2924C9.97972 16.2924 9.98071 16.2924 9.98151 16.2924C10.0847 16.2924 10.1808 16.239 10.2354 16.1513L11.2558 14.5107C13.2629 14.7281 14.8079 15.5022 14.8079 16.3123C14.8081 17.1952 12.8578 18.179 10.059 18.179Z" fill="#5F93D6"/>
<path d="M12.0004 6.31173C12.0004 5.2413 11.1294 4.37036 10.059 4.37036C8.9886 4.37036 8.11768 5.2413 8.11768 6.31173C8.11768 7.38216 8.9886 8.25309 10.059 8.25309C11.1294 8.25309 12.0004 7.38216 12.0004 6.31173ZM8.71557 6.31173C8.71557 5.57094 9.31824 4.96826 10.059 4.96826C10.7998 4.96826 11.4025 5.57094 11.4025 6.31173C11.4025 7.05252 10.8 7.6552 10.059 7.6552C9.31804 7.6552 8.71557 7.05252 8.71557 6.31173Z" fill="#5F93D6"/>
</svg>
