<svg width="167" height="167" viewBox="0 0 167 167" fill="none" xmlns="http://www.w3.org/2000/svg">
<path d="M103.853 90.2583C121.997 90.2583 136.705 75.5499 136.705 57.4062C136.705 39.2626 121.997 24.5542 103.853 24.5542C85.7093 24.5542 71.001 39.2626 71.001 57.4062C71.001 75.5499 85.7093 90.2583 103.853 90.2583Z" fill="#EFCC00"/>
<path d="M103.853 5.21875V16.8044" stroke="#EFCC00" stroke-width="3" stroke-miterlimit="10" stroke-linecap="round"/>
<path d="M103.853 98.0082V109.594" stroke="#EFCC00" stroke-width="3" stroke-miterlimit="10" stroke-linecap="round"/>
<path d="M51.6655 57.4062H63.2772" stroke="#EFCC00" stroke-width="3" stroke-miterlimit="10" stroke-linecap="round"/>
<path d="M144.455 57.4062H156.041" stroke="#EFCC00" stroke-width="3" stroke-miterlimit="10" stroke-linecap="round"/>
<path d="M66.9565 20.5096L75.15 28.7031" stroke="#EFCC00" stroke-width="3" stroke-miterlimit="10" stroke-linecap="round"/>
<path d="M132.556 86.1094L140.75 94.3028" stroke="#EFCC00" stroke-width="3" stroke-miterlimit="10" stroke-linecap="round"/>
<path d="M66.9565 94.3028L75.15 86.1094" stroke="#EFCC00" stroke-width="3" stroke-miterlimit="10" stroke-linecap="round"/>
<path d="M132.556 28.7031L140.75 20.5096" stroke="#EFCC00" stroke-width="3" stroke-miterlimit="10" stroke-linecap="round"/>
<path d="M61.3203 41.4891C69.638 41.4722 77.8022 43.7288 84.9305 48.015C92.0588 52.3012 97.8802 58.454 101.766 65.8085C106.526 63.0254 111.863 61.3769 117.363 60.9909C122.864 60.6049 128.379 61.4919 133.481 63.5829C138.583 65.6739 143.135 68.9127 146.782 73.0478C150.43 77.1829 153.075 82.103 154.513 87.4261C155.95 92.7493 156.142 98.3322 155.072 103.741C154.003 109.151 151.701 114.24 148.346 118.616C144.99 122.991 140.671 126.534 135.725 128.97C130.778 131.406 125.336 132.669 119.822 132.661L61.3203 132.817C49.2094 132.817 37.5946 128.006 29.0309 119.443C20.4673 110.879 15.6563 99.264 15.6562 87.1532C15.6562 75.0423 20.4673 63.4275 29.0309 54.8638C37.5946 46.3001 49.2094 41.4891 61.3203 41.4891V41.4891Z" fill="url(#paint0_linear_322_216)"/>
<path d="M154.301 106.418C159.633 87.3338 148.484 67.5403 129.4 62.2082C110.315 56.8761 90.5218 68.0246 85.1897 87.1091C79.8577 106.194 91.0062 125.987 110.091 131.319C129.175 136.651 148.969 125.503 154.301 106.418Z" fill="url(#paint1_linear_322_216)"/>
<path d="M98.7388 142.211H125.407" stroke="#A5A9AA" stroke-width="3" stroke-miterlimit="10" stroke-linecap="round"/>
<path d="M41.5933 142.211H85.4308" stroke="#B9C1C6" stroke-width="3" stroke-miterlimit="10" stroke-linecap="round"/>
<path d="M86.7095 155.258H116.248" stroke="#A5A9AA" stroke-width="3" stroke-miterlimit="10" stroke-linecap="round"/>
<path d="M52.083 155.258H72.1491" stroke="#A5A9AA" stroke-width="3" stroke-miterlimit="10" stroke-linecap="round"/>
<defs>
<linearGradient id="paint0_linear_322_216" x1="49.7869" y1="136.705" x2="104.819" y2="65.4432" gradientUnits="userSpaceOnUse">
<stop stop-color="#F2F2F2"/>
<stop offset="1" stop-color="#CFCFCF"/>
</linearGradient>
<linearGradient id="paint1_linear_322_216" x1="134.416" y1="84.0109" x2="92.828" y2="120.183" gradientUnits="userSpaceOnUse">
<stop offset="0.02" stop-color="white"/>
<stop offset="1" stop-color="white" stop-opacity="0"/>
</linearGradient>
</defs>
</svg>
