<svg width="36" height="36" viewBox="0 0 36 36" fill="none" xmlns="http://www.w3.org/2000/svg">
<path d="M16.3932 24.4286C14.6574 24.4286 13.2432 25.8429 13.2432 27.5786C13.2432 29.3143 14.6574 30.7286 16.3932 30.7286C18.1289 30.7286 19.5432 29.3143 19.5432 27.5786C19.5432 25.8429 18.1289 24.4286 16.3932 24.4286ZM16.3932 29.4429C15.3646 29.4429 14.5289 28.6072 14.5289 27.5786C14.5289 26.55 15.3646 25.7143 16.3932 25.7143C17.4217 25.7143 18.2574 26.55 18.2574 27.5786C18.2574 28.6072 17.4217 29.4429 16.3932 29.4429Z" fill="#666E7D"/>
<path d="M19.2858 21.7286V4.75716C19.2858 3.98573 18.9644 3.27859 18.4501 2.7643C17.8716 2.25002 17.1644 1.92859 16.393 1.92859C14.8501 1.92859 13.5644 3.2143 13.5644 4.75716V21.7286C11.3144 22.8214 9.96441 25.0714 9.96441 27.5786C9.90012 31.1786 12.8573 34.0714 16.393 34.0714C19.993 34.0714 22.8858 31.1786 22.8858 27.5786C22.8858 25.0714 21.4716 22.8214 19.2858 21.7286ZM16.393 32.7857C13.5001 32.7857 11.1858 30.4714 11.1858 27.5786C11.1858 25.4572 12.4716 23.5929 14.4001 22.7572C14.6573 22.6286 14.7858 22.4357 14.7858 22.1786V4.75716C14.7858 3.92145 15.493 3.2143 16.3287 3.2143C16.7787 3.2143 17.1644 3.40716 17.4216 3.6643C17.8073 3.98573 18.0001 4.37145 18.0001 4.75716V22.1143C18.0001 22.3714 18.1287 22.6286 18.3858 22.6929C20.3787 23.5286 21.6001 25.3929 21.6001 27.5143C21.6001 30.4714 19.2858 32.7857 16.393 32.7857Z" fill="#666E7D"/>
<path d="M20.9573 6.36433H25.393C25.7787 6.36433 26.0359 6.10718 26.0359 5.72147C26.0359 5.33576 25.7787 5.07861 25.393 5.07861H20.9573C20.5716 5.07861 20.3145 5.33576 20.3145 5.72147C20.3145 6.10718 20.6359 6.36433 20.9573 6.36433Z" fill="#666E7D"/>
<path d="M20.9573 10.2857H23.2073C23.593 10.2857 23.8502 10.0286 23.8502 9.64286C23.8502 9.25714 23.593 9 23.2073 9H20.9573C20.5716 9 20.3145 9.25714 20.3145 9.64286C20.3145 10.0286 20.6359 10.2857 20.9573 10.2857Z" fill="#666E7D"/>
<path d="M25.4575 12.9214H21.0218C20.636 12.9214 20.3789 13.1785 20.3789 13.5642C20.3789 13.95 20.636 14.2071 21.0218 14.2071H25.4575C25.8432 14.2071 26.1003 13.95 26.1003 13.5642C26.1003 13.1785 25.7789 12.9214 25.4575 12.9214Z" fill="#666E7D"/>
<path d="M23.2073 16.8429H20.9573C20.5716 16.8429 20.3145 17.1 20.3145 17.4858C20.3145 17.8715 20.5716 18.1286 20.9573 18.1286H23.2073C23.593 18.1286 23.8502 17.8715 23.8502 17.4858C23.8502 17.1 23.5287 16.8429 23.2073 16.8429Z" fill="#666E7D"/>
</svg>
