<svg width="124" height="51" viewBox="0 0 124 51" fill="none" xmlns="http://www.w3.org/2000/svg">
<path d="M58.958 34L53.333 27.875V34H51.583V15.5H53.333V26.45L58.833 20.35H61.283L54.808 27.15L61.333 34H58.958ZM62.7947 27.15C62.7947 25.75 63.0697 24.525 63.6197 23.475C64.1864 22.4083 64.9614 21.5917 65.9447 21.025C66.9447 20.4417 68.0697 20.15 69.3197 20.15C70.6197 20.15 71.7364 20.45 72.6697 21.05C73.6197 21.65 74.3031 22.4167 74.7197 23.35V20.35H76.4697V34H74.7197V30.975C74.2864 31.9083 73.5947 32.6833 72.6447 33.3C71.7114 33.9 70.5947 34.2 69.2947 34.2C68.0614 34.2 66.9447 33.9083 65.9447 33.325C64.9614 32.7417 64.1864 31.9167 63.6197 30.85C63.0697 29.7833 62.7947 28.55 62.7947 27.15ZM74.7197 27.175C74.7197 26.075 74.4947 25.1083 74.0447 24.275C73.5947 23.4417 72.9781 22.8 72.1947 22.35C71.4281 21.9 70.5781 21.675 69.6447 21.675C68.6781 21.675 67.8114 21.8917 67.0447 22.325C66.2781 22.7583 65.6697 23.3917 65.2197 24.225C64.7864 25.0417 64.5697 26.0167 64.5697 27.15C64.5697 28.2667 64.7864 29.25 65.2197 30.1C65.6697 30.9333 66.2781 31.575 67.0447 32.025C67.8114 32.4583 68.6781 32.675 69.6447 32.675C70.5781 32.675 71.4281 32.45 72.1947 32C72.9781 31.55 73.5947 30.9083 74.0447 30.075C74.4947 29.2417 74.7197 28.275 74.7197 27.175ZM81.3898 32.55H88.5398V34H79.3898V32.55L86.4148 21.8H79.5148V20.35H88.4148V21.8L81.3898 32.55ZM103.85 26.475C103.85 27.075 103.833 27.5333 103.8 27.85H92.475C92.525 28.8833 92.775 29.7667 93.225 30.5C93.675 31.2333 94.2667 31.7917 95 32.175C95.7333 32.5417 96.5333 32.725 97.4 32.725C98.5333 32.725 99.4833 32.45 100.25 31.9C101.033 31.35 101.55 30.6083 101.8 29.675H103.65C103.317 31.0083 102.6 32.1 101.5 32.95C100.417 33.7833 99.05 34.2 97.4 34.2C96.1167 34.2 94.9667 33.9167 93.95 33.35C92.9333 32.7667 92.1333 31.95 91.55 30.9C90.9833 29.8333 90.7 28.5917 90.7 27.175C90.7 25.7583 90.9833 24.5167 91.55 23.45C92.1167 22.3833 92.9083 21.5667 93.925 21C94.9417 20.4333 96.1 20.15 97.4 20.15C98.7 20.15 99.8333 20.4333 100.8 21C101.783 21.5667 102.533 22.3333 103.05 23.3C103.583 24.25 103.85 25.3083 103.85 26.475ZM102.075 26.425C102.092 25.4083 101.883 24.5417 101.45 23.825C101.033 23.1083 100.458 22.5667 99.725 22.2C98.9917 21.8333 98.1917 21.65 97.325 21.65C96.025 21.65 94.9167 22.0667 94 22.9C93.0833 23.7333 92.575 24.9083 92.475 26.425H102.075Z" fill="#5F93D6"/>
<path d="M45.1732 30.6893C45.0629 30.5721 42.4435 27.8345 39.9939 28.7619C39.0258 29.1283 38.1758 29.0946 37.6624 28.6626C37.1908 28.2654 37.026 27.5426 37.1977 26.6221C37.4777 25.1327 36.8542 23.4844 35.6477 22.5212C35.2473 22.197 34.7803 21.9652 34.2799 21.8423C33.7796 21.7194 33.2583 21.7085 32.7533 21.8102C32.938 20.9871 32.9519 19.9762 32.6242 18.748C32.0135 16.4642 30.4168 14.7593 28.1281 13.953C25.6457 13.0772 22.8436 13.4495 20.8259 14.9271C19.12 16.1752 17.0358 19.0786 17.8629 22.0714C17.1081 21.8327 16.3016 21.8097 15.5344 22.0049C14.3657 22.3206 13.4065 23.1805 12.6826 24.5607C10.7066 28.327 6.42006 28.8801 6.37637 28.886C6.27052 28.9008 6.17328 28.9525 6.1018 29.0319C6.03031 29.1114 5.98916 29.2135 5.9856 29.3203C5.98204 29.4272 6.0163 29.5318 6.08233 29.6158C6.14837 29.6999 6.24195 29.7579 6.34658 29.7797C6.37736 29.7857 9.43765 30.3755 10.6739 32.0933C11.0353 32.6101 11.5006 33.0458 12.0401 33.3726C12.5795 33.6993 13.1812 33.9099 13.8067 33.9908C13.9085 34.7641 14.2644 35.4815 14.8185 36.0304C15.665 36.8737 16.811 37.3475 18.0059 37.348C19.9421 37.348 21.5617 36.7592 22.5655 35.6908C23.2487 34.9629 23.6409 34.0425 23.7372 32.9472C24.4144 33.3901 25.5454 33.8836 27.2245 33.8836C29.3434 33.8836 30.7207 32.3237 31.386 31.3228C31.9609 32.2164 33.352 33.4169 36.6764 33.4169C39.0784 33.4169 39.8589 32.7874 40.549 32.2323C41.2738 31.6475 41.9004 31.1401 44.7968 31.4479C44.889 31.4577 44.9821 31.4391 45.0634 31.3945C45.1447 31.3499 45.2103 31.2814 45.2516 31.1983C45.2928 31.1152 45.3075 31.0215 45.2939 30.9298C45.2802 30.8381 45.2388 30.7527 45.1751 30.6853L45.1732 30.6893ZM39.977 31.5303C39.3505 32.0357 38.7577 32.5133 36.6764 32.5133C32.3352 32.5133 31.9102 30.3407 31.8914 30.2533C31.8771 30.1564 31.8319 30.0667 31.7625 29.9977C31.693 29.9286 31.6031 29.8838 31.5061 29.8701C31.4091 29.8563 31.3103 29.8743 31.2244 29.9214C31.1385 29.9685 31.0701 30.0421 31.0295 30.1312C31.0166 30.16 29.691 32.98 27.2245 32.98C24.7093 32.98 23.6896 31.7537 23.6498 31.7041C23.5898 31.6283 23.5073 31.5735 23.4141 31.5477C23.321 31.5218 23.222 31.5261 23.1315 31.5601C23.0408 31.5943 22.9634 31.6568 22.9109 31.7383C22.8583 31.8198 22.8333 31.9161 22.8396 32.0129C22.922 33.2948 22.6062 34.3245 21.9042 35.0741C21.0691 35.9579 19.6889 36.4414 18.0059 36.4414H17.9999C17.0499 36.4352 16.1397 36.0587 15.4629 35.3919C15.0985 35.0255 14.6685 34.4118 14.6685 33.5708C14.6775 32.1241 15.2316 31.0418 16.1858 30.6029C16.8729 30.2891 17.6385 30.3775 18.1816 30.8372C18.6294 31.2175 18.8568 31.5899 18.8558 31.9443C18.8558 32.4011 18.4716 32.7308 18.4676 32.7338C18.4216 32.7716 18.3834 32.8182 18.3554 32.8708C18.3274 32.9234 18.31 32.981 18.3042 33.0404C18.2985 33.0997 18.3044 33.1596 18.3218 33.2166C18.3392 33.2736 18.3677 33.3267 18.4055 33.3727C18.4434 33.4187 18.49 33.4569 18.5426 33.4849C18.5952 33.5129 18.6528 33.5303 18.7122 33.5361C18.7715 33.5418 18.8314 33.5359 18.8884 33.5185C18.9454 33.5011 18.9985 33.4727 19.0445 33.4348C19.0733 33.4109 19.7555 32.844 19.7634 31.9592C19.7694 31.3198 19.4337 30.7101 18.7704 30.1451C18.3622 29.8104 17.8674 29.5983 17.3435 29.5334C16.8196 29.4685 16.288 29.5536 15.8104 29.7787C14.6427 30.3149 13.9238 31.5035 13.7928 33.0704C13.3156 32.9896 12.8592 32.8149 12.4501 32.5563C12.041 32.2977 11.6873 31.9604 11.4097 31.564C10.6153 30.4599 9.26488 29.7708 8.18156 29.3676C9.77029 28.8265 12.1018 27.6151 13.4849 24.9798C14.0857 23.8359 14.8512 23.1289 15.7628 22.8797C17.136 22.5023 18.4259 23.2848 18.4438 23.2927C18.5283 23.3456 18.6279 23.3692 18.7272 23.3599C18.8265 23.3505 18.92 23.3086 18.9931 23.2408C19.0662 23.173 19.115 23.083 19.1318 22.9847C19.1486 22.8863 19.1326 22.7852 19.0862 22.6969C17.6146 19.8591 19.7028 16.8703 21.365 15.6539C23.1186 14.371 25.6556 14.0384 27.8312 14.8039C29.828 15.5069 31.2201 16.9884 31.7514 18.9744C32.2161 20.713 31.9887 22.1518 31.0742 23.2441C29.9194 24.6253 27.8967 25.1247 26.5135 25.0125C25.4054 24.9192 24.5663 24.4426 24.1533 23.67C23.979 23.3326 23.8921 22.9568 23.9006 22.5771C23.9091 22.1973 24.0127 21.8258 24.2019 21.4965C24.611 20.7527 25.0876 20.3228 25.6149 20.2195C26.3358 20.0805 26.9613 20.58 26.9673 20.5849C27.0603 20.6614 27.1798 20.6979 27.2996 20.6862C27.4195 20.6746 27.5298 20.6158 27.6063 20.5229C27.6828 20.4299 27.7192 20.3104 27.7076 20.1905C27.6959 20.0707 27.6372 19.9604 27.5442 19.8839C27.5055 19.8521 26.5959 19.1104 25.453 19.3269C24.6438 19.4808 23.9557 20.0636 23.4066 21.0586C23.1443 21.5204 23.0021 22.0405 22.9927 22.5715C22.9833 23.1024 23.1072 23.6273 23.3529 24.098C23.909 25.1356 25.033 25.7979 26.4381 25.9161C28.1082 26.0601 30.4 25.4643 31.7702 23.8259C32.0171 23.5271 32.2262 23.1989 32.3928 22.8489C33.358 22.4775 34.3082 22.6056 35.0867 23.2262C36.0231 23.9729 36.5265 25.2985 36.31 26.4493C36.0747 27.7074 36.3488 28.7381 37.0835 29.3537C37.8561 30.0001 39.0347 30.0905 40.3196 29.604C41.4287 29.1839 42.6739 29.8383 43.5189 30.4519C41.392 30.4251 40.6582 30.9802 39.977 31.5303Z" fill="#5F93D6"/>
</svg>
