<svg width="124" height="51" viewBox="0 0 124 51" fill="none" xmlns="http://www.w3.org/2000/svg">
<path d="M58.958 34L53.333 27.875V34H51.583V15.5H53.333V26.45L58.833 20.35H61.283L54.808 27.15L61.333 34H58.958ZM62.7947 27.15C62.7947 25.75 63.0697 24.525 63.6197 23.475C64.1864 22.4083 64.9614 21.5917 65.9447 21.025C66.9447 20.4417 68.0697 20.15 69.3197 20.15C70.6197 20.15 71.7364 20.45 72.6697 21.05C73.6197 21.65 74.3031 22.4167 74.7197 23.35V20.35H76.4697V34H74.7197V30.975C74.2864 31.9083 73.5947 32.6833 72.6447 33.3C71.7114 33.9 70.5947 34.2 69.2947 34.2C68.0614 34.2 66.9447 33.9083 65.9447 33.325C64.9614 32.7417 64.1864 31.9167 63.6197 30.85C63.0697 29.7833 62.7947 28.55 62.7947 27.15ZM74.7197 27.175C74.7197 26.075 74.4947 25.1083 74.0447 24.275C73.5947 23.4417 72.9781 22.8 72.1947 22.35C71.4281 21.9 70.5781 21.675 69.6447 21.675C68.6781 21.675 67.8114 21.8917 67.0447 22.325C66.2781 22.7583 65.6697 23.3917 65.2197 24.225C64.7864 25.0417 64.5697 26.0167 64.5697 27.15C64.5697 28.2667 64.7864 29.25 65.2197 30.1C65.6697 30.9333 66.2781 31.575 67.0447 32.025C67.8114 32.4583 68.6781 32.675 69.6447 32.675C70.5781 32.675 71.4281 32.45 72.1947 32C72.9781 31.55 73.5947 30.9083 74.0447 30.075C74.4947 29.2417 74.7197 28.275 74.7197 27.175ZM81.3898 32.55H88.5398V34H79.3898V32.55L86.4148 21.8H79.5148V20.35H88.4148V21.8L81.3898 32.55ZM103.85 26.475C103.85 27.075 103.833 27.5333 103.8 27.85H92.475C92.525 28.8833 92.775 29.7667 93.225 30.5C93.675 31.2333 94.2667 31.7917 95 32.175C95.7333 32.5417 96.5333 32.725 97.4 32.725C98.5333 32.725 99.4833 32.45 100.25 31.9C101.033 31.35 101.55 30.6083 101.8 29.675H103.65C103.317 31.0083 102.6 32.1 101.5 32.95C100.417 33.7833 99.05 34.2 97.4 34.2C96.1167 34.2 94.9667 33.9167 93.95 33.35C92.9333 32.7667 92.1333 31.95 91.55 30.9C90.9833 29.8333 90.7 28.5917 90.7 27.175C90.7 25.7583 90.9833 24.5167 91.55 23.45C92.1167 22.3833 92.9083 21.5667 93.925 21C94.9417 20.4333 96.1 20.15 97.4 20.15C98.7 20.15 99.8333 20.4333 100.8 21C101.783 21.5667 102.533 22.3333 103.05 23.3C103.583 24.25 103.85 25.3083 103.85 26.475ZM102.075 26.425C102.092 25.4083 101.883 24.5417 101.45 23.825C101.033 23.1083 100.458 22.5667 99.725 22.2C98.9917 21.8333 98.1917 21.65 97.325 21.65C96.025 21.65 94.9167 22.0667 94 22.9C93.0833 23.7333 92.575 24.9083 92.475 26.425H102.075Z" fill="white"/>
<path d="M45.1732 30.6894C45.0629 30.5722 42.4435 27.8346 39.9939 28.762C39.0258 29.1284 38.1758 29.0947 37.6624 28.6628C37.1908 28.2656 37.026 27.5427 37.1977 26.6222C37.4777 25.1328 36.8542 23.4845 35.6477 22.5213C35.2473 22.1971 34.7803 21.9653 34.2799 21.8425C33.7796 21.7196 33.2583 21.7086 32.7533 21.8104C32.938 20.9872 32.9519 19.9764 32.6242 18.7481C32.0135 16.4643 30.4168 14.7594 28.1281 13.9531C25.6457 13.0773 22.8436 13.4497 20.8259 14.9272C19.12 16.1753 17.0358 19.0787 17.8629 22.0715C17.1081 21.8328 16.3016 21.8098 15.5344 22.005C14.3657 22.3207 13.4065 23.1806 12.6826 24.5608C10.7066 28.3271 6.42006 28.8802 6.37637 28.8862C6.27052 28.9009 6.17328 28.9526 6.1018 29.0321C6.03031 29.1115 5.98916 29.2136 5.9856 29.3205C5.98204 29.4273 6.0163 29.5319 6.08233 29.616C6.14837 29.7 6.24195 29.758 6.34658 29.7798C6.37736 29.7858 9.43765 30.3756 10.6739 32.0934C11.0353 32.6102 11.5006 33.046 12.0401 33.3727C12.5795 33.6994 13.1812 33.91 13.8067 33.991C13.9085 34.7642 14.2644 35.4816 14.8185 36.0305C15.665 36.8738 16.811 37.3476 18.0059 37.3481C19.9421 37.3481 21.5617 36.7593 22.5655 35.6909C23.2487 34.9631 23.6409 34.0426 23.7372 32.9474C24.4144 33.3902 25.5454 33.8837 27.2245 33.8837C29.3434 33.8837 30.7207 32.3238 31.386 31.3229C31.9609 32.2165 33.352 33.417 36.6764 33.417C39.0784 33.417 39.8589 32.7875 40.549 32.2324C41.2738 31.6476 41.9004 31.1402 44.7968 31.448C44.889 31.4578 44.9821 31.4392 45.0634 31.3946C45.1447 31.35 45.2103 31.2815 45.2516 31.1984C45.2928 31.1154 45.3075 31.0217 45.2939 30.9299C45.2802 30.8382 45.2388 30.7529 45.1751 30.6854L45.1732 30.6894ZM39.977 31.5304C39.3505 32.0358 38.7577 32.5134 36.6764 32.5134C32.3352 32.5134 31.9102 30.3408 31.8914 30.2535C31.8771 30.1566 31.8319 30.0669 31.7625 29.9978C31.693 29.9287 31.6031 29.8839 31.5061 29.8702C31.4091 29.8565 31.3103 29.8745 31.2244 29.9215C31.1385 29.9686 31.0701 30.0422 31.0295 30.1313C31.0166 30.1601 29.691 32.9801 27.2245 32.9801C24.7093 32.9801 23.6896 31.7538 23.6498 31.7042C23.5898 31.6284 23.5073 31.5737 23.4141 31.5478C23.321 31.5219 23.222 31.5263 23.1315 31.5602C23.0408 31.5945 22.9634 31.6569 22.9109 31.7384C22.8583 31.82 22.8333 31.9162 22.8396 32.013C22.922 33.2949 22.6062 34.3246 21.9042 35.0743C21.0691 35.958 19.6889 36.4416 18.0059 36.4416H17.9999C17.0499 36.4353 16.1397 36.0588 15.4629 35.392C15.0985 35.0256 14.6685 34.412 14.6685 33.5709C14.6775 32.1242 15.2316 31.0419 16.1858 30.603C16.8729 30.2892 17.6385 30.3776 18.1816 30.8373C18.6294 31.2176 18.8568 31.59 18.8558 31.9445C18.8558 32.4012 18.4716 32.7309 18.4676 32.7339C18.4216 32.7718 18.3834 32.8183 18.3554 32.8709C18.3274 32.9236 18.31 32.9812 18.3042 33.0405C18.2985 33.0998 18.3045 33.1597 18.3218 33.2167C18.3392 33.2738 18.3677 33.3268 18.4055 33.3728C18.4434 33.4189 18.49 33.457 18.5426 33.485C18.5952 33.513 18.6528 33.5304 18.7122 33.5362C18.7715 33.542 18.8314 33.536 18.8884 33.5186C18.9454 33.5012 18.9985 33.4728 19.0445 33.4349C19.0733 33.4111 19.7555 32.8441 19.7634 31.9594C19.7694 31.3199 19.4337 30.7102 18.7704 30.1452C18.3622 29.8105 17.8674 29.5984 17.3435 29.5335C16.8196 29.4687 16.288 29.5537 15.8104 29.7788C14.6427 30.315 13.9238 31.5036 13.7928 33.0705C13.3156 32.9897 12.8592 32.815 12.4501 32.5564C12.041 32.2978 11.6873 31.9606 11.4097 31.5642C10.6153 30.46 9.26488 29.7709 8.18156 29.3678C9.77029 28.8266 12.1018 27.6152 13.4849 24.9799C14.0857 23.836 14.8512 23.129 15.7628 22.8798C17.136 22.5024 18.4259 23.2849 18.4438 23.2928C18.5283 23.3458 18.6279 23.3694 18.7272 23.36C18.8265 23.3506 18.92 23.3088 18.9931 23.2409C19.0662 23.1731 19.115 23.0831 19.1318 22.9848C19.1486 22.8865 19.1326 22.7854 19.0862 22.6971C17.6146 19.8592 19.7028 16.8704 21.365 15.654C23.1186 14.3711 25.6556 14.0385 27.8312 14.8041C29.828 15.5071 31.2201 16.9886 31.7514 18.9745C32.2161 20.7131 31.9887 22.1519 31.0742 23.2442C29.9194 24.6254 27.8967 25.1248 26.5135 25.0126C25.4054 24.9193 24.5663 24.4427 24.1533 23.6702C23.979 23.3327 23.8921 22.9569 23.9006 22.5772C23.9091 22.1974 24.0127 21.8259 24.2019 21.4966C24.611 20.7529 25.0876 20.3229 25.6149 20.2196C26.3358 20.0806 26.9613 20.5801 26.9673 20.585C27.0603 20.6616 27.1798 20.698 27.2996 20.6864C27.4195 20.6747 27.5298 20.616 27.6063 20.523C27.6828 20.43 27.7192 20.3105 27.7076 20.1907C27.6959 20.0708 27.6372 19.9605 27.5442 19.884C27.5055 19.8522 26.5959 19.1105 25.453 19.327C24.6438 19.4809 23.9557 20.0637 23.4066 21.0587C23.1443 21.5205 23.0021 22.0406 22.9927 22.5716C22.9833 23.1025 23.1072 23.6274 23.3529 24.0981C23.909 25.1358 25.033 25.7981 26.4381 25.9162C28.1082 26.0602 30.4 25.4644 31.7702 23.8261C32.0171 23.5272 32.2262 23.199 32.3928 22.849C33.358 22.4776 34.3082 22.6057 35.0867 23.2263C36.0231 23.973 36.5265 25.2986 36.31 26.4495C36.0747 27.7075 36.3488 28.7382 37.0835 29.3538C37.8561 30.0003 39.0347 30.0906 40.3196 29.6041C41.4287 29.1841 42.6739 29.8384 43.5189 30.4521C41.392 30.4252 40.6582 30.9803 39.977 31.5304Z" fill="white"/>
</svg>
